<svg width="127" height="27" fill="none" xmlns="http://www.w3.org/2000/svg"><g><path d="M16.644 13.5c0 3.778-1.605 7.17-4.152 9.485a12.164 12.164 0 01-2.934 1.984 12.192 12.192 0 01-2.933-1.984 9.225 9.225 0 002.933-1.314c2.58-1.744 4.285-4.75 4.285-8.169 0-3.418-1.704-6.427-4.285-8.172a9.18 9.18 0 00-2.933-1.314 9.142 9.142 0 00-4.031-.107c-.06.01-.119.023-.18.036-.06.009-.123.013-.186.013-.777 0-1.404-.649-1.404-1.446 0-.174.03-.338.082-.491l.046-.115a1.525 1.525 0 01.263-.398c.054-.056.112-.11.174-.157a1.311 1.311 0 01.535-.252l.072-.014.018-.003a11.938 11.938 0 017.544.949 12.191 12.191 0 012.934 1.984c2.547 2.317 4.152 5.709 4.152 9.486z" fill="url(#paint0_linear)"/><path d="M9.558 25.904l-.348-.168a12.976 12.976 0 01-3.131-2.117l-1.182-1.078 1.533-.383a8.385 8.385 0 002.676-1.198c2.45-1.657 3.913-4.445 3.913-7.46 0-3.016-1.464-5.805-3.913-7.46a8.442 8.442 0 00-6.357-1.298l-.022.005c-.044.007-.089.016-.134.026l-.069.012c-.1.014-.201.021-.298.021C1 4.808 0 3.777 0 2.512c0-.264.043-.525.13-.775l.008-.024c.02-.053.042-.105.064-.157.079-.177.177-.339.292-.487l.01-.013A2.168 2.168 0 01.9.668a2.12 2.12 0 01.856-.4l.07-.013A12.72 12.72 0 014.368 0C6.3 0 8.164.425 9.906 1.264a12.977 12.977 0 013.13 2.117c2.816 2.56 4.431 6.248 4.431 10.12 0 3.872-1.615 7.56-4.431 10.121-.941.858-1.996 1.571-3.131 2.116l-.348.166zm-1.207-2.613c.388.269.791.514 1.207.732a11.39 11.39 0 002.388-1.675c2.462-2.239 3.874-5.463 3.874-8.849 0-3.385-1.412-6.608-3.874-8.846a11.34 11.34 0 00-2.736-1.85A11.089 11.089 0 004.367 1.7c-.742 0-1.48.072-2.194.218l-.084.016-.04.012a.476.476 0 00-.163.085.693.693 0 00-.11.105.643.643 0 00-.13.379c0 .33.26.598.58.598l.05-.003c.057-.012.113-.024.17-.033a10.039 10.039 0 017.56 1.549c2.915 1.97 4.656 5.29 4.656 8.879 0 3.588-1.74 6.908-4.657 8.88-.523.353-1.078.658-1.654.907z" fill="url(#paint1_linear)"/><path d="M18.176 24.49c0 .164-.026.322-.076.469a1.423 1.423 0 01-.933.923l-.027.004a2.267 2.267 0 01-.177.034c-.01.004-.022.005-.032.008a11.96 11.96 0 01-7.488-.96 12.192 12.192 0 01-2.933-1.984c-2.548-2.316-4.153-5.708-4.153-9.485 0-3.777 1.605-7.168 4.153-9.484A12.164 12.164 0 019.443 2.03a12.19 12.19 0 012.934 1.984 9.226 9.226 0 00-2.934 1.314C6.861 7.075 5.158 10.08 5.158 13.5c0 3.42 1.705 6.426 4.285 8.169a9.18 9.18 0 002.934 1.314c.723.184 1.48.28 2.258.28a9.134 9.134 0 001.907-.2l.019-.003a1.28 1.28 0 01.215-.016c.772-.002 1.4.645 1.4 1.444z" fill="url(#paint2_linear)"/><path d="M14.633 27c-1.933 0-3.798-.425-5.54-1.264a12.976 12.976 0 01-3.13-2.117c-2.815-2.56-4.43-6.247-4.43-10.118 0-3.871 1.615-7.56 4.432-10.12.941-.858 1.994-1.571 3.131-2.116l.349-.168.348.168a12.978 12.978 0 013.131 2.117l1.182 1.078-1.533.383a8.377 8.377 0 00-2.674 1.198c-2.454 1.654-3.917 4.444-3.917 7.46 0 3.015 1.463 5.804 3.912 7.46a8.453 8.453 0 006.384 1.293l.04-.008a.466.466 0 00.034-.008c.024-.005.06-.014.104-.019.103-.016.207-.024.318-.024 1.228 0 2.226 1.03 2.226 2.294 0 .259-.04.51-.12.749-.229.699-.782 1.247-1.48 1.46l-.09.021-.045.01-.112.022a.212.212 0 01-.029.005 12.933 12.933 0 01-2.491.244zM9.442 2.977a11.39 11.39 0 00-2.388 1.675C4.592 6.89 3.18 10.116 3.18 13.499c0 3.384 1.412 6.609 3.874 8.848a11.382 11.382 0 002.736 1.85 11.084 11.084 0 004.843 1.105c.712 0 1.424-.069 2.118-.203l.08-.026h.054l.046-.01.04-.008a.597.597 0 00.35-.368.6.6 0 00.032-.198.588.588 0 00-.648-.59 10.042 10.042 0 01-7.713-1.519c-2.914-1.97-4.655-5.29-4.655-8.88 0-3.59 1.74-6.91 4.657-8.88a10.09 10.09 0 011.658-.911 11.64 11.64 0 00-1.21-.732z" fill="url(#paint3_linear)"/></g><g fill="#fff"><path d="M29.074 20c-.913 0-1.732-.102-2.453-.308-.72-.205-1.323-.451-1.804-.74-.544-.32-.817-.745-.817-1.277 0-.35.136-.65.41-.9.272-.25.601-.375.986-.375.289 0 .618.1.987.297.416.227.857.417 1.322.57a4.92 4.92 0 001.54.227c.609 0 1.061-.095 1.359-.284.296-.19.445-.437.445-.74a.686.686 0 00-.325-.605c-.217-.144-.669-.255-1.358-.33l-1.274-.137c-1.267-.136-2.216-.494-2.85-1.071-.633-.577-.949-1.345-.949-2.302 0-1.094.416-1.96 1.25-2.598.834-.639 2.022-.957 3.56-.957.658 0 1.287.061 1.887.182a6.75 6.75 0 011.647.547c.658.319.987.738.987 1.254 0 .35-.12.647-.36.889-.24.243-.562.365-.963.365-.128 0-.264-.02-.41-.058a3.406 3.406 0 01-.552-.216 5.768 5.768 0 00-2.357-.479c-.512 0-.886.08-1.119.24-.232.159-.349.368-.349.627s.104.46.314.604c.208.145.64.248 1.298.308l1.275.136c1.379.152 2.368.517 2.97 1.094.602.578.902 1.33.902 2.257 0 1.14-.454 2.055-1.359 2.747-.91.687-2.188 1.033-3.84 1.033zM48 19.886c-.962 0-1.595-.494-1.9-1.481l-1.659-5.288h-.047l-1.683 5.288c-.336.988-.954 1.48-1.851 1.48-.914 0-1.547-.493-1.9-1.48l-2.72-7.636a2.29 2.29 0 01-.12-.662c0-.44.157-.805.47-1.094.313-.289.7-.433 1.166-.433.801 0 1.338.448 1.611 1.345l1.684 5.583h.047l1.659-5.561c.288-.912.841-1.368 1.659-1.368.801 0 1.347.456 1.635 1.368l1.755 5.561h.048l1.611-5.583c.273-.897.809-1.345 1.612-1.345.465 0 .849.144 1.154.433.305.289.457.653.457 1.094 0 .183-.04.403-.12.662l-2.716 7.636c-.352.987-.97 1.48-1.852 1.48zM56.802 7.602c-.528 0-.978-.175-1.347-.525a1.691 1.691 0 01-.553-1.276c0-.501.184-.927.553-1.277A1.89 1.89 0 0156.802 4c.53 0 .979.176 1.348.524.369.35.553.775.553 1.277 0 .5-.186.927-.553 1.276-.37.35-.819.525-1.348.525zm0 12.284c-.496 0-.901-.149-1.215-.445-.313-.297-.47-.71-.47-1.243v-7.93c0-.532.157-.946.47-1.243.313-.296.717-.443 1.215-.443.482 0 .882.148 1.203.443.32.297.48.71.48 1.243v7.931c0 .532-.16.946-.48 1.243-.322.295-.721.444-1.203.444zM65.483 19.886c-1.378 0-2.345-.3-2.898-.9-.553-.6-.83-1.531-.83-2.792v-4.968c0-.091-.056-.136-.168-.136h-.096c-.433 0-.766-.11-.998-.33-.233-.221-.35-.506-.35-.855 0-.35.117-.635.35-.855.232-.22.565-.331.998-.331h.096c.112 0 .168-.045.168-.136V6.94c0-.532.156-.946.47-1.243.313-.296.716-.443 1.215-.443.48 0 .877.148 1.19.443.313.296.47.71.47 1.243v1.642c0 .09.047.136.144.136h.913c.432 0 .765.11.998.33.233.22.35.505.35.855s-.117.634-.35.855c-.233.22-.564.33-.998.33h-.913c-.097 0-.144.046-.144.137v4.877c0 .335.067.577.204.73.136.152.365.243.685.273.528.061.909.224 1.142.49.232.267.349.574.349.923 0 .395-.148.721-.446.98-.297.258-.765.388-1.407.388h-.144zM74.237 20c-1.235 0-2.28-.265-3.138-.798-.858-.532-1.464-1.313-1.816-2.348a5.422 5.422 0 01-.288-1.128 9.915 9.915 0 01-.097-1.493c0-.577.032-1.075.097-1.493.064-.418.16-.794.288-1.129.352-1.033.958-1.815 1.816-2.348.857-.532 1.903-.797 3.138-.797.817 0 1.54.114 2.164.341.625.228 1.122.518 1.49.866.24.227.413.441.518.639.103.197.156.41.156.638 0 .395-.14.721-.42.98-.28.258-.63.388-1.046.388-.257 0-.49-.057-.698-.172a3.858 3.858 0 01-.673-.49c-.37-.335-.85-.5-1.444-.5-.913 0-1.5.402-1.755 1.208-.08.212-.136.464-.168.753-.032.288-.047.661-.047 1.117 0 .456.016.83.047 1.118.032.288.088.539.168.752.256.806.842 1.21 1.755 1.21.593 0 1.075-.168 1.444-.502.24-.212.465-.375.673-.49.208-.114.441-.171.698-.171.417 0 .766.129 1.046.388.28.258.42.585.42.98 0 .227-.051.44-.156.638-.105.197-.277.41-.517.638-.37.35-.866.639-1.49.866-.626.227-1.347.339-2.165.339zM89.63 19.886c-.482 0-.883-.149-1.203-.445-.32-.297-.481-.71-.481-1.243v-5.013c0-.607-.152-1.095-.457-1.46-.304-.364-.761-.546-1.37-.546-.609 0-1.063.182-1.359.547-.297.364-.445.85-.445 1.459v5.014c0 .532-.16.946-.481 1.243-.32.297-.721.445-1.202.445-.497 0-.902-.148-1.215-.445-.313-.297-.47-.71-.47-1.243V5.801c0-.532.157-.946.47-1.243.313-.297.717-.445 1.215-.445.481 0 .882.148 1.202.445.32.297.481.71.481 1.243v3.852h.025c.272-.304.653-.577 1.141-.821.489-.244 1.11-.365 1.865-.365.64 0 1.21.102 1.707.308.497.205.914.49 1.251.855.336.364.589.797.757 1.298.168.501.253 1.048.253 1.642v5.63c0 .531-.157.945-.468 1.242-.312.297-.72.444-1.217.444zM99.249 20c-1.363 0-2.485-.274-3.367-.82-.882-.548-1.49-1.322-1.828-2.325-.13-.35-.224-.73-.289-1.14a9.681 9.681 0 01-.096-1.48c0-.578.027-1.076.085-1.494.056-.418.148-.802.277-1.151.352-1.004.965-1.774 1.84-2.314.873-.54 1.936-.809 3.187-.809 1.298 0 2.376.27 3.234.809.857.539 1.455 1.302 1.791 2.29.128.395.224.794.289 1.197.063.403.096.863.096 1.379 0 .303-.096.555-.289.752-.192.198-.465.297-.817.297h-6.18c-.096 0-.144.045-.144.136 0 .198.04.41.12.639.16.47.449.827.867 1.07.416.244.93.366 1.54.366.4 0 .785-.053 1.154-.16a5.514 5.514 0 001.034-.41c.401-.227.786-.341 1.155-.341.352 0 .645.11.878.33.232.221.349.506.349.856 0 .47-.224.85-.674 1.139a7.613 7.613 0 01-1.84.866c-.669.212-1.459.318-2.372.318zm1.755-6.93c.096 0 .143-.044.143-.136 0-.182-.011-.334-.036-.455a5.51 5.51 0 00-.084-.365 1.572 1.572 0 00-.71-.9c-.345-.206-.758-.308-1.238-.308s-.89.102-1.226.308a1.599 1.599 0 00-.698.9c-.033.12-.06.243-.085.364a2.376 2.376 0 00-.036.456c0 .092.047.136.144.136h3.826zM108.603 19.886c-.497 0-.902-.149-1.215-.445-.313-.297-.47-.71-.47-1.243v-7.93c0-.532.157-.946.47-1.243.313-.296.716-.443 1.215-.443.4 0 .749.106 1.045.318.296.212.493.517.589.912v.023h.024c.273-.365.663-.683 1.167-.957.505-.273 1.094-.41 1.768-.41.272 0 .505.02.698.058.192.038.369.095.528.171.305.136.529.319.674.547.145.23.217.48.217.753 0 .471-.153.859-.457 1.162-.305.304-.705.457-1.202.457a2.71 2.71 0 01-.721-.115 3.21 3.21 0 00-.866-.114c-.625 0-1.079.201-1.359.604-.28.403-.421.976-.421 1.72v4.491c0 .532-.161.946-.481 1.243-.322.292-.722.44-1.203.44zM121.781 20c-1.363 0-2.485-.274-3.367-.82-.881-.548-1.49-1.322-1.828-2.325a6.01 6.01 0 01-.289-1.14 9.775 9.775 0 01-.096-1.48c0-.578.027-1.076.085-1.494.056-.418.148-.802.277-1.151.352-1.004.965-1.774 1.84-2.314.873-.54 1.936-.809 3.187-.809 1.298 0 2.377.27 3.234.809.858.539 1.455 1.302 1.791 2.29.128.395.224.794.289 1.197.063.403.096.863.096 1.379 0 .303-.096.555-.289.752-.192.198-.465.297-.817.297h-6.18c-.096 0-.143.045-.143.136 0 .198.04.41.12.639.16.47.448.827.866 1.07.417.244.929.366 1.54.366.4 0 .785-.053 1.154-.16.37-.106.714-.242 1.035-.41.4-.227.785-.341 1.154-.341.352 0 .645.11.878.33.232.221.349.506.349.856 0 .47-.224.85-.674 1.139a7.596 7.596 0 01-1.84.866c-.669.212-1.457.318-2.372.318zm1.756-6.93c.097 0 .144-.044.144-.136 0-.182-.012-.334-.036-.455a5.523 5.523 0 00-.085-.365 1.574 1.574 0 00-.709-.9c-.345-.206-.759-.308-1.238-.308-.48 0-.891.102-1.227.308a1.602 1.602 0 00-.698.9c-.033.12-.06.243-.084.364a2.327 2.327 0 00-.036.456c0 .092.047.136.143.136h3.826z"/></g><defs><linearGradient id="paint0_linear" x1=".824" y1="12.908" x2="16.644" y2="12.908" gradientUnits="userSpaceOnUse"><stop stop-color="#5961F9"/><stop offset="1" stop-color="#5951F9"/></linearGradient><linearGradient id="paint1_linear" x1="0" y1="12.952" x2="17.468" y2="12.952" gradientUnits="userSpaceOnUse"><stop stop-color="#5961F9"/><stop offset="1" stop-color="#5951F9"/></linearGradient><linearGradient id="paint2_linear" x1="2.357" y1="14.092" x2="18.176" y2="14.092" gradientUnits="userSpaceOnUse"><stop stop-color="#5961F9"/><stop offset="1" stop-color="#5951F9"/></linearGradient><linearGradient id="paint3_linear" x1="1.533" y1="14.048" x2="19" y2="14.048" gradientUnits="userSpaceOnUse"><stop stop-color="#5961F9"/><stop offset="1" stop-color="#5951F9"/></linearGradient><clipPath id="clip0"><path fill="#fff" d="M0 0h19v27H0z"/></clipPath><clipPath id="clip1"><path fill="#fff" transform="translate(24 4)" d="M0 0h103v16H0z"/></clipPath></defs></svg>
